<svg xmlns="http://www.w3.org/2000/svg" viewBox="0 0 32 32"><title>Artboard 1</title><path d="M1,14.363l.147-.049a5.637,5.637,0,0,1,2.48-1.273A12.635,12.635,0,0,1,6.091,12.7c.881-.049,1.779-.082,2.66-.147a13.087,13.087,0,0,0,3.264-.588c.163-.065.261.033.212.229a.77.77,0,0,1-.539.555,8.939,8.939,0,0,1-1.631.473,16.358,16.358,0,0,1-2.823.228c-.621.017-1.241-.016-1.861.017a16.149,16.149,0,0,0-1.8.147,8.124,8.124,0,0,0-2.366.734c-.081.049-.147.081-.212.114Z" style="fill:#0ea5d5"/><path d="M22.742,10.911a3.929,3.929,0,0,0-.1-.621c-.065-.261-.261-.342-.456-.163a3.959,3.959,0,0,1-1.306.669,5.838,5.838,0,0,0-1.093.571,1.683,1.683,0,0,0-.571,1.779.65.65,0,0,0,.8.457,1.483,1.483,0,0,0,1.094-.914.465.465,0,0,0-.2-.6,3.428,3.428,0,0,1-.359-.179c-.066-.049-.147-.114-.147-.18a.3.3,0,0,1,.13-.2.385.385,0,0,1,.2-.049.881.881,0,0,1,.93,1.191,2.588,2.588,0,0,1-1.191,1.469,1.7,1.7,0,0,1-.881.31.952.952,0,0,1-1.061-.849,2.778,2.778,0,0,1,.392-2.089,4.278,4.278,0,0,1,1.061-1.175,2.043,2.043,0,0,1,.783-.375,3.51,3.51,0,0,0,1.5-.751c.1-.081.212-.146.31-.212A.293.293,0,0,1,23,9.083a1.229,1.229,0,0,1,.245.457c.131.522.245,1.044.327,1.583a4.153,4.153,0,0,1-.816,3,7.817,7.817,0,0,1-2.481,2.317c-.522.327-1.093.6-1.632.914a11.016,11.016,0,0,0-2.659,2.171,7.984,7.984,0,0,1-.9.913,1.17,1.17,0,0,1-1.534.066,1.536,1.536,0,0,1-.506-.735,1.978,1.978,0,0,1,.017-1.338,2.565,2.565,0,0,1,1.158-1.452,1.28,1.28,0,0,1,1.322-.049.818.818,0,0,1,.408,1.142,2.264,2.264,0,0,1-1.224,1.11.621.621,0,1,1-.424-1.159.181.181,0,0,1,.13,0,.154.154,0,0,1,.017.147c-.017.082-.049.147-.066.229-.016.2.066.261.262.228a1.093,1.093,0,0,0,.766-.865.523.523,0,0,0-.652-.457,1.418,1.418,0,0,0-.751.327,1.813,1.813,0,0,0-.489,1.942.8.8,0,0,0,.277.342.515.515,0,0,0,.6.065,2.755,2.755,0,0,0,.506-.342c.44-.457.881-.914,1.289-1.387a1.916,1.916,0,0,0,.457-.881.64.64,0,0,0-.425-.833c-.13-.065-.277-.114-.408-.2-.114-.066-.114-.164-.016-.262a1.225,1.225,0,0,1,.229-.179,11.287,11.287,0,0,0,1.55-1.061c.114-.081.245-.163.375-.245a.348.348,0,0,1,.441.049,1.707,1.707,0,0,1,.228.245,1.074,1.074,0,0,0,1.11.376,2.675,2.675,0,0,0,1.028-.523,6.269,6.269,0,0,0,1.158-1.126,3.285,3.285,0,0,0,.7-1.664c.049-.343.082-.685.114-1.044" style="fill:#0ea5d5"/><path d="M21.051,7.289a1.083,1.083,0,0,0,1.044-.75c.1-.359-.13-.6-.506-.506a1.22,1.22,0,0,0-.865.7c-.244.489-.1.5.327.554M19.027,9.607a9.646,9.646,0,0,1-.261-1.028,3.709,3.709,0,0,1,.049-1.273,2.952,2.952,0,0,1,1.632-2.04,3.145,3.145,0,0,1,1.632-.343A2.69,2.69,0,0,1,23.3,5.25c.2.114.2.147.13.359a.756.756,0,0,0,.147.8.405.405,0,0,1,.049.555A7.658,7.658,0,0,1,22.9,8.252a3.226,3.226,0,0,1-2.611,1.387c-.212,0-.441-.032-.669-.032h-.588" style="fill:#0572b5"/><path d="M17.539,11.284c-.18.082-.327.131-.457.2a6.827,6.827,0,0,1-2.4.8.288.288,0,0,0-.228.179,3.375,3.375,0,0,0-.131.816,1.991,1.991,0,0,0,.571,1.24c.131.147.2.164.375.049a5.33,5.33,0,0,0,.49-.375,6.137,6.137,0,0,0,1.648-2.5,3,3,0,0,0,.131-.408m1.354-1.223c-.114.391-.228.783-.375,1.174a11.542,11.542,0,0,1-1.485,2.889,8.7,8.7,0,0,1-2.383,2.317c-.293.2-.424.261-.75-.1a4.52,4.52,0,0,1-1.159-2.268,4.25,4.25,0,0,1,.1-1.632c.18-.734.408-.767.979-.783a7.6,7.6,0,0,0,2.334-.539c.832-.326,1.68-.685,2.513-1.028a.567.567,0,0,0,.179-.065c.016.016.033.016.049.033" style="fill:#0572b5"/><path d="M16.879,9.776a6.625,6.625,0,0,1-2.594-1.42.378.378,0,0,0-.588.033.814.814,0,0,0-.049,1.24.852.852,0,0,1,.294.587,5.954,5.954,0,0,0,2.937-.44m1.73.033c-.506.179-1.012.375-1.517.522a11.15,11.15,0,0,1-2.921.522c-.327.016-.653,0-.98-.016a.188.188,0,0,1-.13-.115c.065-.473-.277-.75-.539-1.06a3.179,3.179,0,0,1-.342-.474,1.247,1.247,0,0,1-.066-1.126,3.169,3.169,0,0,1,.441-.75.764.764,0,0,1,1.257-.082,9.835,9.835,0,0,0,3.116,1.958c.49.2,1.012.343,1.534.506a.32.32,0,0,1,.131.049.127.127,0,0,1,.016.066" style="fill:#0572b5"/><path d="M2.286,15.908a3.958,3.958,0,0,1,.408-.343,6.751,6.751,0,0,1,2.562-1.208c.832-.195,1.7-.244,2.545-.359.784-.1,1.583-.179,2.367-.31.489-.081.946-.244,1.436-.359.114-.032.212-.065.31-.1a.262.262,0,0,1,.081.343.861.861,0,0,1-.522.49,10.933,10.933,0,0,1-2.382.652c-.718.115-1.453.131-2.171.2-.6.049-1.224.082-1.827.163a8.046,8.046,0,0,0-2.383.7c-.13.065-.245.131-.375.2a.214.214,0,0,0-.049-.065" style="fill:#0ea5d5"/><path d="M3.338,2.08a8.1,8.1,0,0,1,.882,0,6.281,6.281,0,0,1,2.447.865,30.123,30.123,0,0,1,2.546,1.73,15.84,15.84,0,0,0,2.464,1.517c.229.115.473.2.7.294.081.033.163.082.261.114-.049.245-.2.31-.392.359a1.289,1.289,0,0,1-.75-.13A9.922,9.922,0,0,1,8.887,5.393C8.136,4.822,7.4,4.218,6.635,3.663a8.659,8.659,0,0,0-3.2-1.534c-.016,0-.032-.016-.1-.049" style="fill:#0ea5d5"/><path d="M3.171,4.8a5.82,5.82,0,0,1,1.844,0A9.13,9.13,0,0,1,7.691,5.816a23.946,23.946,0,0,0,2.758,1.338c.375.147.767.261,1.142.375.18.066.212.131.082.278a.493.493,0,0,1-.425.163,4.672,4.672,0,0,1-.832-.147A11.165,11.165,0,0,1,7.691,6.665,19.44,19.44,0,0,0,5.455,5.457a8.286,8.286,0,0,0-2.186-.571.224.224,0,0,1-.1-.033V4.8" style="fill:#0ea5d5"/><path d="M12.133,14.509a.389.389,0,0,1-.049.506,1.423,1.423,0,0,1-.473.343,13.24,13.24,0,0,1-3.182.718,8.118,8.118,0,0,0-2.073.375c-.6.228-1.175.49-1.762.751-.033.016-.049.016-.082.032C4.5,17.218,4.5,17.2,4.48,17.2a1.356,1.356,0,0,1,.212-.229c.31-.245.636-.473.962-.7a4.864,4.864,0,0,1,1.975-.751c.7-.114,1.387-.2,2.089-.31a11.109,11.109,0,0,0,2.186-.6.988.988,0,0,1,.229-.1" style="fill:#0ea5d5"/><path d="M31,2.639c-.114.065-.245.147-.359.212-.849.457-1.681.9-2.529,1.355-1.192.636-2.383,1.289-3.558,1.925-.13.082-.277.163-.408.229a.3.3,0,0,1-.408-.066.67.67,0,0,1-.081-.734.289.289,0,0,1,.147-.1c.62-.245,1.24-.506,1.876-.751.9-.359,1.8-.718,2.709-1.093l2.448-.979.147-.049c0,.016.016.033.016.049" style="fill:#0ea5d5"/><path d="M4.341,6.907a.468.468,0,0,0,.1-.049,5.374,5.374,0,0,1,2.334,0A7.014,7.014,0,0,1,8.356,7.5a12.226,12.226,0,0,0,2.5.979c.245.065.49.114.718.179a.282.282,0,0,1-.163.31.823.823,0,0,1-.62.082,11.617,11.617,0,0,1-2.693-.979C7.7,7.87,7.311,7.658,6.9,7.5a5.972,5.972,0,0,0-1.86-.457,6.393,6.393,0,0,1-.7-.131" style="fill:#0ea5d5"/><path d="M13.812,29.844l.1-.539a6.975,6.975,0,0,0,.1-2.333c-.1-.914-.245-1.828-.326-2.742a7.284,7.284,0,0,1,.147-2.594,1.193,1.193,0,0,1,.163-.359c.1-.147.2-.163.408-.147a1.746,1.746,0,0,0-.131.375,4.7,4.7,0,0,0-.049.947c.049.783.131,1.566.18,2.35a18.67,18.67,0,0,1,.065,3.018,6.061,6.061,0,0,1-.489,1.828,1.671,1.671,0,0,1-.164.2Z" style="fill:#0572b5"/><path d="M11.936,28.609a13.8,13.8,0,0,0,.457-1.387,8.106,8.106,0,0,0,.212-1.257c.049-.44.049-.864.065-1.3a10.712,10.712,0,0,1,.376-2.676,4.852,4.852,0,0,1,.212-.637,1.02,1.02,0,0,1,.245-.342.3.3,0,0,1,.375-.082,3.3,3.3,0,0,0-.229.637,8.258,8.258,0,0,0-.179,1.125c-.065.686-.1,1.355-.163,2.04a8.961,8.961,0,0,1-.784,3.035,5.912,5.912,0,0,1-.554.865c0-.016-.017-.016-.033-.016" style="fill:#0572b5"/><path d="M6.824,18.276a6.618,6.618,0,0,1,2.5-1.779c.408-.114.816-.2,1.223-.31.637-.179,1.273-.391,1.91-.587l.147-.049a.409.409,0,0,1-.066.555,1.251,1.251,0,0,1-.669.342c-.8.213-1.6.392-2.415.6a8.346,8.346,0,0,0-2.4,1.142.34.34,0,0,1-.13.082c-.016.016-.049.016-.065.033,0-.017-.017-.017-.033-.033" style="fill:#0ea5d5"/><path d="M5.933,9.651A10.619,10.619,0,0,1,8.054,9.1a3.485,3.485,0,0,1,1.012.065c.881.163,1.763.326,2.644.408.2.016.228.114.13.261a.677.677,0,0,1-.7.261c-.474-.081-.947-.179-1.42-.277a8.754,8.754,0,0,0-2.252-.261c-.424.016-.832.081-1.256.114l-.262.049c0-.033-.016-.049-.016-.065" style="fill:#0ea5d5"/><path d="M10.524,26.467c.147-.229.294-.474.441-.7A7.391,7.391,0,0,0,11.9,23.4a9.425,9.425,0,0,1,.93-2.35.732.732,0,0,1,.359-.375.386.386,0,0,1,.376.016,4.167,4.167,0,0,0-.865,1.958,10.9,10.9,0,0,1-.963,2.448,5.246,5.246,0,0,1-1.044,1.289.515.515,0,0,1-.164.082Z" style="fill:#0572b5"/><path d="M9.025,18.927a4.522,4.522,0,0,1,2.807-1.909c.522-.13,1.044-.326,1.583-.489a.239.239,0,0,1,.032.293.707.707,0,0,1-.342.408,2.678,2.678,0,0,1-.686.261,8.233,8.233,0,0,0-3.28,1.371.678.678,0,0,1-.114.065" style="fill:#0ea5d5"/><path d="M7.91,11.184a4.38,4.38,0,0,1,1.811-.735,2.96,2.96,0,0,1,.93,0,9.881,9.881,0,0,0,1.7.115.1.1,0,0,1,.066.016.376.376,0,0,1-.261.473,1.33,1.33,0,0,1-.833.065,6.444,6.444,0,0,0-2.431-.081l-.979.147" style="fill:#0ea5d5"/><path d="M9.505,24.585a.722.722,0,0,1,.1-.114,8.189,8.189,0,0,0,1.975-2.562c.228-.44.473-.865.7-1.289a.827.827,0,0,1,.473-.408c.164-.049.2-.049.392.082a1.917,1.917,0,0,0-.669.9,10.951,10.951,0,0,1-.979,1.762,5.578,5.578,0,0,1-1.828,1.6.142.142,0,0,1-.1.049c-.016.016-.032,0-.065-.017" style="fill:#0572b5"/><path d="M12.8,19.864a6.958,6.958,0,0,0-1.273,1.5A3.406,3.406,0,0,1,9.6,22.475c.146-.1.277-.2.424-.278a4.878,4.878,0,0,0,1.681-1.73,2.7,2.7,0,0,1,.228-.359.866.866,0,0,1,.636-.375.2.2,0,0,1,.229.131" style="fill:#0572b5"/><path d="M11.91,28.7c.016-.032.016-.065.033-.1.016,0,.032,0,.032.017-.032.032-.049.065-.065.081Z" style="fill:#0ea5d5"/><path d="M13.823,29.852c0,.033-.016.049-.016.082-.017,0-.017-.016-.033-.016a.235.235,0,0,1,.049-.066Z" style="fill:#0572b5"/><path d="M9.475,24.628h0a.023.023,0,0,1-.033,0c.016,0,.016-.017.033,0h0" style="fill:#0572b5"/><path d="M10.481,26.511l.049-.048h0l-.049.048Z" style="fill:#0ea5d5"/><path d="M10.479,26.51l-.016.016.016-.016Z" style="fill:#0ea5d5"/><path d="M11.909,28.7v.017h-.016l.016-.017Z" style="fill:#0ea5d5"/><path d="M21.579,6.33a.357.357,0,0,1,.114.147c.032.146-.163.342-.327.342a.156.156,0,0,1-.179-.179.393.393,0,0,1,.392-.31" style="fill:#0572b5"/></svg>