<?xml version="1.0" encoding="utf-8"?>
<!-- Generator: Adobe Illustrator 22.1.0, SVG Export Plug-In . SVG Version: 6.00 Build 0)  -->
<svg version="1.1"
	 id="svg2" inkscape:version="0.92.2 5c3e80d, 2017-08-06" sodipodi:docname="Lenguaje_Latino-Icon.svg" xmlns:cc="http://creativecommons.org/ns#" xmlns:dc="http://purl.org/dc/elements/1.1/" xmlns:inkscape="http://www.inkscape.org/namespaces/inkscape" xmlns:rdf="http://www.w3.org/1999/02/22-rdf-syntax-ns#" xmlns:sodipodi="http://sodipodi.sourceforge.net/DTD/sodipodi-0.dtd" xmlns:svg="http://www.w3.org/2000/svg"
	 xmlns="http://www.w3.org/2000/svg" xmlns:xlink="http://www.w3.org/1999/xlink" x="0px" y="0px" viewBox="0 0 31.7 32"
	 style="enable-background:new 0 0 31.7 32;" xml:space="preserve">
<style type="text/css">
	.st0{fill:#0EA5D5;}
	.st1{fill:#0572B5;}
</style>
<g id="g10" transform="matrix(1.3333333,0,0,-1.3333333,2.0000002,31.141066)" inkscape:groupmode="layer" inkscape:label="Lenguaje Latino - Logo (Manual)">
	<g id="g4074" transform="translate(-1.0375e-6)">
		<g id="g20" transform="matrix(0.12238717,0,0,0.12238717,-0.7499987,12.583418)">
			<path id="path22" inkscape:connector-curvature="0" class="st0" d="M-1,0c0.3,0.1,0.6,0.2,0.9,0.3c4.4,4,9.6,6.4,15.2,7.8
				c5,1.3,10,1.8,15.1,2.1c5.4,0.3,10.9,0.5,16.3,0.9c6.8,0.5,13.5,1.4,20,3.6c1,0.4,1.6-0.2,1.3-1.4c-0.4-1.8-1.7-2.8-3.3-3.4
				C61.3,8.6,58,7.7,54.5,7c-5.7-1.1-11.5-1.3-17.3-1.4c-3.8-0.1-7.6,0.1-11.4-0.1c-3.7-0.2-7.4-0.3-11-0.9C9.8,3.8,4.9,2.4,0.3,0.1
				C-0.2-0.2-0.6-0.4-1-0.6V0z"/>
		</g>
		<g id="g24" transform="matrix(0.12238717,0,0,0.12238717,15.556782,15.172911)">
			<path id="path26" inkscape:connector-curvature="0" class="st0" d="M-1,0c-0.2,1.2-0.2,2.6-0.6,3.8c-0.4,1.6-1.6,2.1-2.8,1
				c-2.3-2.1-5.2-3-8-4.1c-2.3-1-4.6-2-6.7-3.5c-3.5-2.7-4.5-7.1-3.5-10.9c0.5-1.9,2.5-3.4,4.9-2.8c3.2,0.7,5.4,2.6,6.7,5.6
				c0.6,1.4,0.2,2.8-1.2,3.7c-0.7,0.4-1.5,0.6-2.2,1.1c-0.4,0.3-0.9,0.7-0.9,1.1c0,0.4,0.4,0.9,0.8,1.2c0.3,0.2,0.8,0.3,1.2,0.3
				c3.8,0,7-2.5,5.7-7.3c-1.1-4-3.9-6.8-7.3-9c-1.6-1.1-3.4-1.8-5.4-1.9c-3.9-0.3-5.8,2.1-6.5,5.2c-1,4.6,0,8.8,2.4,12.8
				c1.7,2.8,3.9,5.2,6.5,7.2c1.4,1.1,3.1,1.9,4.8,2.3c3.4,0.8,6.5,2.3,9.2,4.6c0.6,0.5,1.3,0.9,1.9,1.3c1,0.6,2,0.4,2.6-0.5
				c0.6-0.8,1.3-1.8,1.5-2.8c0.8-3.2,1.5-6.4,2-9.7c1.2-6.9-1.4-12.7-5-18.4c-3.9-6-9.3-10.5-15.2-14.2c-3.2-2-6.7-3.7-10-5.6
				c-6.1-3.6-11.6-8-16.3-13.3c-1.7-2-3.5-3.9-5.5-5.6c-3-2.5-6.7-2.6-9.4-0.4c-1.5,1.2-2.5,2.7-3.1,4.5c-0.9,2.7-0.9,5.5,0.1,8.2
				c1.3,3.8,3.6,6.9,7.1,8.9c2.6,1.5,5.3,1.8,8.1,0.3c2.8-1.5,3.9-4.2,2.5-7c-1.6-3.2-4.2-5.5-7.5-6.8c-1.7-0.7-3.6-0.2-4.5,0.8
				c-1.6,1.8-0.8,5.2,1.9,6.3c0.2,0.1,0.7,0.1,0.8,0c0.2-0.2,0.2-0.6,0.1-0.9c-0.1-0.5-0.3-0.9-0.4-1.4c-0.1-1.2,0.4-1.6,1.6-1.4
				c2.1,0.3,4.7,3.3,4.7,5.3c0,1.8-1.8,3.1-4,2.8c-1.7-0.2-3.3-0.9-4.6-2c-3.2-2.7-4.6-8.1-3-11.9c0.3-0.8,1-1.6,1.7-2.1
				c1.1-0.9,2.4-1.1,3.7-0.4c1.1,0.6,2.2,1.3,3.1,2.1c2.7,2.8,5.4,5.6,7.9,8.5c1.4,1.5,2.3,3.3,2.8,5.4c0.6,2.5-0.3,4.2-2.6,5.1
				c-0.8,0.4-1.7,0.7-2.5,1.2c-0.7,0.4-0.7,1-0.1,1.6c0.4,0.4,0.9,0.8,1.4,1.1c3.5,1.7,6.4,4.3,9.5,6.5c0.7,0.5,1.5,1,2.3,1.5
				c1,0.6,1.9,0.4,2.7-0.3c0.5-0.4,1-1,1.4-1.5c1.8-2.2,4.1-2.8,6.8-2.3c2.4,0.5,4.4,1.8,6.3,3.2c2.7,2,5,4.3,7.1,6.9
				c2.4,3,3.8,6.4,4.3,10.2C-1.4-4.3-1.2-2.2-1,0"/>
		</g>
		<g id="g28" transform="matrix(0.12238717,0,0,0.12238717,14.288092,17.888731)">
			<path id="path30" inkscape:connector-curvature="0" class="st1" d="M-1,0C2,0,4.7,2,5.4,4.6c0.6,2.2-0.8,3.7-3.1,3.1
				C-0.2,7.2-1.9,5.6-3,3.4C-4.5,0.4-3.6,0.3-1,0 M-13.4-14.2c-0.5,2-1.3,4.1-1.6,6.3c-0.3,2.6-0.3,5.2,0.3,7.8
				c1.4,5.7,4.7,9.9,10,12.5c3.1,1.6,6.5,2.3,10,2.1c2.6-0.2,5.2-0.6,7.5-2c1.2-0.7,1.2-0.9,0.8-2.2c-0.5-1.8-0.5-3.5,0.9-4.9
				c1.1-1.1,1-2.1,0.3-3.4c-1.4-2.7-2.6-5.5-4.5-7.9C6.3-11.2,1-14.3-5.7-14.4c-1.3,0-2.7,0.2-4.1,0.2
				C-10.8-14.2-11.9-14.2-13.4-14.2"/>
		</g>
		<g id="g32" transform="matrix(0.12238717,0,0,0.12238717,11.654014,14.89246)">
			<path id="path34" inkscape:connector-curvature="0" class="st1" d="M-1,0c-1.1-0.5-2-0.8-2.8-1.2c-4.7-2.1-9.3-4.6-14.7-4.9
				c-0.5,0-1.3-0.6-1.4-1.1c-0.4-1.6-0.8-3.3-0.8-5c0.1-3,1.6-5.4,3.5-7.6c0.8-0.9,1.2-1,2.3-0.3c1,0.7,2.1,1.5,3,2.3
				c4.7,4.2,7.9,9.4,10.1,15.3C-1.5-1.8-1.3-1.1-1,0 M7.3,7.5C6.6,5.1,5.9,2.7,5,0.3C2.8-6-0.2-11.9-4.1-17.4
				c-4-5.6-8.8-10.5-14.6-14.2c-1.8-1.2-2.6-1.6-4.6,0.6c-3.5,4.1-6.3,8.5-7.1,13.9c-0.5,3.3-0.2,6.7,0.6,10c1.1,4.5,2.5,4.7,6,4.8
				c5,0.2,9.7,1.6,14.3,3.3C-4.4,3,0.8,5.2,5.9,7.3C6.3,7.4,6.7,7.5,7,7.7C7.1,7.6,7.2,7.6,7.3,7.5"/>
		</g>
		<g id="g36" transform="matrix(0.12238717,0,0,0.12238717,11.15957,16.023881)">
			<path id="path38" inkscape:connector-curvature="0" class="st1" d="M-1,0c-5.9,1.8-11.3,4.5-15.9,8.7c-1.3,1.1-2.4,1-3.6-0.2
				c-2.4-2.7-2.6-5-0.3-7.6c0.9-1,1.8-2,1.8-3.6C-12.6-3.3-6.7-2.4-1,0 M9.6-0.2C6.5-1.3,3.4-2.5,0.3-3.4c-5.8-1.8-11.8-3-17.9-3.2
				c-2-0.1-4,0-6,0.1c-0.3,0-0.8,0.5-0.8,0.7c0.4,2.9-1.7,4.6-3.3,6.5c-0.8,0.9-1.5,1.9-2.1,2.9c-1.2,2.2-1.4,4.6-0.4,6.9
				c0.7,1.6,1.6,3.3,2.7,4.6c2.4,2.7,4.8,3.2,7.7,0.5c5.6-5.2,12-9.2,19.1-12c3-1.2,6.2-2.1,9.4-3.1C9,0.5,9.3,0.3,9.5,0.2
				C9.6,0,9.6-0.1,9.6-0.2"/>
		</g>
		<g id="g40" transform="matrix(0.12238717,0,0,0.12238717,0.21439997,11.425036)">
			<path id="path42" inkscape:connector-curvature="0" class="st0" d="M-1,0c0.8,0.7,1.6,1.5,2.5,2.1c4.7,3.6,9.9,6,15.7,7.4
				c5.1,1.2,10.4,1.5,15.6,2.2c4.8,0.6,9.7,1.1,14.5,1.9c3,0.5,5.8,1.5,8.8,2.2c0.7,0.2,1.3,0.4,1.9,0.6c0.8-0.6,0.8-1.3,0.5-2.1
				c-0.6-1.5-1.7-2.4-3.2-3c-4.7-1.9-9.6-3.2-14.6-4c-4.4-0.7-8.9-0.8-13.3-1.2c-3.7-0.3-7.5-0.5-11.2-1C11.1,4.4,6.2,3,1.6,0.8
				C0.8,0.4,0.1,0-0.7-0.4C-0.8-0.2-0.9-0.1-1,0"/>
		</g>
		<g id="g44" transform="matrix(0.12238717,0,0,0.12238717,1.0038217,21.795672)">
			<path id="path46" inkscape:connector-curvature="0" class="st0" d="M-1,0c2,0,3.7,0.2,5.4,0c5.4-0.6,10.3-2.6,15-5.3
				c5.5-3.1,10.5-7,15.6-10.6c4.8-3.4,9.7-6.8,15.1-9.3c1.4-0.7,2.9-1.2,4.3-1.8c0.5-0.2,1-0.5,1.6-0.7c-0.3-1.5-1.2-1.9-2.4-2.2
				c-1.7-0.4-3.2,0.3-4.6,0.8c-5.8,2.1-11.1,5.1-16,8.8c-4.6,3.5-9.1,7.2-13.8,10.6C13.2-5.4,6.9-1.9-0.4-0.3C-0.5-0.3-0.6-0.2-1,0"
				/>
		</g>
		<g id="g48" transform="matrix(0.12238717,0,0,0.12238717,0.8782035,19.752565)">
			<path id="path50" inkscape:connector-curvature="0" class="st0" d="M-1,0c3.8,0.6,7.5,0.6,11.3,0c5.9-1,11.2-3.5,16.4-6.2
				c5.5-2.9,11-6,16.9-8.2c2.3-0.9,4.7-1.6,7-2.3c1.1-0.4,1.3-0.8,0.5-1.7c-0.7-0.8-1.7-1.1-2.6-1c-1.7,0.2-3.5,0.4-5.1,0.9
				c-5.9,1.5-11.4,4.1-16.7,7.1c-4.5,2.6-8.9,5.4-13.7,7.4C8.7-2.3,4.3-1-0.4-0.5c-0.2,0-0.4,0.1-0.6,0.2C-1-0.2-1-0.1-1,0"/>
		</g>
		<g id="g52" transform="matrix(0.12238717,0,0,0.12238717,7.5995845,12.473931)">
			<path id="path54" inkscape:connector-curvature="0" class="st0" d="M-1,0c0.7-1.3,0.5-2.3-0.3-3.1c-0.8-0.8-1.8-1.7-2.9-2.1
				C-10.5-7.4-17-9-23.7-9.6c-4.3-0.4-8.6-0.8-12.7-2.3c-3.7-1.4-7.2-3-10.8-4.6c-0.2-0.1-0.3-0.1-0.5-0.2c-0.1,0.1-0.1,0.2-0.2,0.2
				c0.4,0.5,0.8,1,1.3,1.4c1.9,1.5,3.9,2.9,5.9,4.3c3.7,2.5,7.8,3.9,12.1,4.6c4.3,0.7,8.5,1.2,12.8,1.9c4.6,0.7,9.1,2.1,13.4,3.7
				C-2-0.3-1.5-0.2-1,0"/>
		</g>
		<g id="g56" transform="matrix(0.12238717,0,0,0.12238717,21.750001,21.376582)">
			<path id="path58" inkscape:connector-curvature="0" class="st0" d="M-1,0c-0.7-0.4-1.5-0.9-2.2-1.3c-5.2-2.8-10.3-5.5-15.5-8.3
				c-7.3-3.9-14.6-7.9-21.8-11.8c-0.8-0.5-1.7-1-2.5-1.4c-1-0.5-1.8-0.4-2.5,0.4c-1,1.1-1.3,3.2-0.5,4.5c0.2,0.3,0.6,0.5,0.9,0.6
				c3.8,1.5,7.6,3.1,11.5,4.6c5.5,2.2,11,4.4,16.6,6.7c5,2,10,4,15,6c0.3,0.1,0.6,0.2,0.9,0.3C-1.1,0.2-1,0.1-1,0"/>
		</g>
		<g id="g60" transform="matrix(0.12238717,0,0,0.12238717,1.755952,18.175337)">
			<path id="path62" inkscape:connector-curvature="0" class="st0" d="M-1,0c0.3,0.1,0.4,0.2,0.6,0.3c4.8,0.9,9.5,1.2,14.3,0
				c3.4-0.8,6.6-2.3,9.7-3.9c4.9-2.4,9.9-4.7,15.3-6c1.5-0.4,3-0.7,4.4-1.1c0.1-1-0.3-1.5-1-1.9c-1.2-0.7-2.5-0.8-3.8-0.5
				c-5.7,1.3-11.2,3.3-16.5,6c-2.4,1.2-4.8,2.5-7.3,3.5C11.1-2.1,7.3-1.1,3.3-0.8C1.9-0.7,0.6-0.3-1,0"/>
		</g>
		<g id="g64" transform="matrix(0.12238717,0,0,0.12238717,8.8593156,0.97289018)">
			<path id="path66" inkscape:connector-curvature="0" class="st1" d="M-1,0c0.2,1.1,0.4,2.2,0.6,3.3C0.7,8,0.7,12.8,0.2,17.6
				c-0.6,5.6-1.5,11.2-2,16.8c-0.5,5.3-0.5,10.7,0.9,15.9c0.2,0.8,0.6,1.6,1,2.2c0.6,0.9,1.2,1,2.5,0.9c-0.3-0.8-0.7-1.5-0.8-2.3
				c-0.2-1.9-0.5-3.9-0.3-5.8c0.3-4.8,0.8-9.6,1.1-14.4c0.4-6.2,1-12.3,0.4-18.5C2.5,8.6,1.7,4.8,0,1.2C-0.3,0.8-0.6,0.4-1,0L-1,0z"
				/>
		</g>
		<g id="g68" transform="matrix(0.12238717,0,0,0.12238717,7.4519733,1.8990428)">
			<path id="path70" inkscape:connector-curvature="0" class="st1" d="M-1,0c1,2.8,2.1,5.6,2.8,8.5c0.7,2.5,1,5.1,1.3,7.7
				c0.3,2.7,0.3,5.3,0.4,8c0.2,5.5,0.7,11,2.3,16.4c0.4,1.3,0.7,2.6,1.3,3.9C7.4,45.3,8,46,8.6,46.6c0.6,0.6,1.4,1,2.3,0.5
				c-0.5-1.3-1.2-2.6-1.4-3.9C9,41,8.6,38.7,8.4,36.3c-0.4-4.2-0.6-8.3-1-12.5C6.6,17.4,5.6,11.1,2.6,5.2C1.7,3.3,0.4,1.6-0.8-0.1
				C-0.8,0-0.9,0-1,0"/>
		</g>
		<g id="g72" transform="matrix(0.12238717,0,0,0.12238717,3.6179382,9.6487453)">
			<path id="path74" inkscape:connector-curvature="0" class="st0" d="M-1,0c4.6,4.3,9,9,15.3,10.9c2.5,0.7,5,1.2,7.5,1.9
				c3.9,1.1,7.8,2.4,11.7,3.6c0.3,0.1,0.6,0.2,0.9,0.3c0.8-1.2,0.6-2.3-0.4-3.4c-1.1-1.2-2.5-1.7-4.1-2.1C25,9.9,20.1,8.8,15.1,7.5
				c-5.3-1.4-10.1-4-14.7-7C0.2,0.3-0.1,0.1-0.4,0c-0.1-0.1-0.3-0.1-0.4-0.2C-0.8-0.1-0.9-0.1-1,0"/>
		</g>
		<g id="g76" transform="matrix(0.12238717,0,0,0.12238717,2.9498266,16.117825)">
			<path id="path78" inkscape:connector-curvature="0" class="st0" d="M-1,0c4.3,1.3,8.5,3,13,3.4c2.1,0.2,4.2,0,6.2-0.4
				C23.6,2,29,1,34.4,0.5c1.2-0.1,1.4-0.7,0.8-1.6c-1-1.5-2.6-1.8-4.3-1.6C28-2.2,25.1-1.6,22.2-1c-4.6,0.9-9.1,1.9-13.8,1.6
				C5.8,0.5,3.3,0.1,0.7-0.1C0.2-0.2-0.4-0.3-0.9-0.4C-0.9-0.2-1-0.1-1,0"/>
		</g>
		<g id="g80" transform="matrix(0.12238717,0,0,0.12238717,6.3932753,3.5057906)">
			<path id="path82" inkscape:connector-curvature="0" class="st1" d="M-1,0c0.9,1.4,1.8,2.9,2.7,4.3c2.9,4.5,4.5,9.4,5.7,14.5
				c1.2,5.1,3.2,9.8,5.7,14.4c0.5,1,1.1,1.8,2.2,2.3c0.7,0.3,1.5,0.4,2.3-0.1c-3.4-3.3-4-7.8-5.3-12c-1.6-5.2-3.1-10.3-5.9-15
				C4.7,5.5,2.6,2.8,0,0.5C-0.3,0.3-0.6,0.1-1,0L-1,0z"/>
		</g>
		<g id="g84" transform="matrix(0.12238717,0,0,0.12238717,5.2687331,9.1602124)">
			<path id="path86" inkscape:connector-curvature="0" class="st0" d="M-1,0C3.2,6.2,9,10,16.2,11.7c3.2,0.8,6.4,2,9.7,3
				c0.5-0.4,0.5-1.1,0.2-1.8c-0.4-1.1-1.1-2-2.1-2.5c-1.4-0.6-2.7-1.4-4.2-1.6c-7.4-1.2-14-4.3-20.1-8.4C-0.5,0.3-0.7,0.1-1,0"/>
		</g>
		<g id="g88" transform="matrix(0.12238717,0,0,0.12238717,4.4323392,14.968047)">
			<path id="path90" inkscape:connector-curvature="0" class="st0" d="M-1,0c3.4,2.3,7.1,3.9,11.1,4.5c1.9,0.3,3.8,0.3,5.7,0
				c3.5-0.5,6.9-0.8,10.4-0.7c0.1,0,0.3,0,0.4-0.1C27,2.5,26.4,1.4,25,0.8c-1.7-0.8-3.4-0.7-5.1-0.4c-5,0.9-9.9,1.5-14.9,0.5
				C3,0.6,1,0.3-1,0"/>
		</g>
		<g id="g92" transform="matrix(0.12238717,0,0,0.12238717,5.6288451,4.916829)">
			<path id="path94" inkscape:connector-curvature="0" class="st1" d="M-1,0c0.2,0.3,0.4,0.5,0.6,0.7c5.1,4.4,9.1,9.7,12.1,15.7
				c1.4,2.7,2.9,5.3,4.3,7.9c0.7,1.2,1.6,2.1,2.9,2.5c1,0.3,1.2,0.3,2.4-0.5c-2.1-1.3-3.1-3.4-4.1-5.5c-1.8-3.7-3.5-7.4-6-10.8
				C8.3,6,4.5,2.7,0,0.2C-0.2,0-0.4-0.1-0.6-0.1C-0.7-0.2-0.8-0.1-1,0"/>
		</g>
		<g id="g96" transform="matrix(0.12238717,0,0,0.12238717,8.0984591,8.4581017)">
			<path id="path98" inkscape:connector-curvature="0" class="st1" d="M-1,0c-3.5-2.3-5.2-6.2-7.8-9.2c-3.1-3.6-7.1-5.8-11.8-6.8
				c0.9,0.6,1.7,1.2,2.6,1.7c4.2,2.8,7.9,6.1,10.3,10.6c0.4,0.8,0.9,1.5,1.4,2.2c0.9,1.3,2.2,2.1,3.9,2.3C-1.9,0.8-1.3,0.8-1,0"/>
		</g>
		<g id="g100" transform="matrix(0.12238717,0,0,0.12238717,7.4325015,1.828401)">
			<path id="path102" inkscape:connector-curvature="0" class="st0" d="M-1,0c0.1,0.2,0.1,0.4,0.2,0.6c0.1,0,0.2,0,0.2-0.1
				C-0.8,0.3-0.9,0.1-1,0L-1,0z"/>
		</g>
		<g id="g104" transform="matrix(0.12238717,0,0,0.12238717,8.8671974,0.96648933)">
			<path id="path106" inkscape:connector-curvature="0" class="st1" d="M-1,0c0-0.2-0.1-0.3-0.1-0.5c-0.1,0-0.1,0.1-0.2,0.1
				C-1.2-0.2-1.1-0.1-1,0L-1,0z"/>
		</g>
		<g id="g108" transform="matrix(0.12238717,0,0,0.12238717,5.6060076,4.8849716)">
			<path id="path110" inkscape:connector-curvature="0" class="st1" d="M-1,0C-1,0-1-0.1-1,0c-0.1-0.1-0.2,0-0.2,0
				C-1.1,0-1.1,0.1-1,0C-1,0.1-1,0-1,0"/>
		</g>
		<g id="g112" transform="matrix(0.12238717,0,0,0.12238717,6.3605368,3.4722075)">
			<path id="path114" inkscape:connector-curvature="0" class="st0" d="M-1,0c0.1,0.1,0.2,0.2,0.3,0.3l0,0C-0.8,0.2-0.9,0.1-1,0
				L-1,0z"/>
		</g>
		<g id="g116" transform="matrix(0.12238717,0,0,0.12238717,6.3593374,3.4733335)">
			<path id="path118" inkscape:connector-curvature="0" class="st0" d="M-1,0c0,0-0.1-0.1-0.1-0.1C-1.1-0.1-1.1-0.1-1,0
				C-1,0-1,0-1,0L-1,0z"/>
		</g>
		<g id="g120" transform="matrix(0.12238717,0,0,0.12238717,7.4317794,1.8290619)">
			<path id="path122" inkscape:connector-curvature="0" class="st0" d="M-1,0C-1,0-1-0.1-1-0.1c0,0-0.1,0-0.1,0C-1.1-0.1-1,0-1,0
				L-1,0z"/>
		</g>
		<g id="g124" transform="matrix(0.12238717,0,0,0.12238717,14.683941,18.608526)">
			<path id="path126" inkscape:connector-curvature="0" class="st1" d="M-1,0c0.2-0.2,0.6-0.5,0.7-0.9c0.2-0.9-1-2.1-2-2.1
				c-0.7,0-1.1,0.3-1.1,1.1C-3.3-1-2.3,0-1,0"/>
		</g>
	</g>
</g>
</svg>
